<svg id="svg" version="1.1" xmlns="http://www.w3.org/2000/svg" xmlns:xlink="http://www.w3.org/1999/xlink" width="400" height="388.1856540084388" viewBox="0, 0, 400,388.1856540084388"><g id="svgg"><path id="path0" d="M139.815 50.194 C 135.205 60.051,133.598 80.893,137.144 84.835 C 137.326 85.038,137.477 85.475,137.478 85.806 C 137.480 86.512,140.012 91.566,140.810 92.458 C 141.112 92.795,141.359 93.204,141.359 93.367 C 141.359 94.072,144.511 97.303,173.699 126.516 L 204.460 157.304 208.334 153.389 L 212.209 149.473 213.585 150.950 C 214.342 151.763,216.270 153.902,217.869 155.704 C 219.468 157.506,221.039 159.267,221.359 159.616 C 222.942 161.342,224.887 163.507,226.589 165.437 C 229.096 168.280,233.480 173.189,236.117 176.106 C 237.291 177.406,239.493 179.862,241.008 181.565 C 242.524 183.267,245.477 186.583,247.570 188.932 C 249.664 191.282,252.617 194.598,254.135 196.302 C 255.652 198.006,257.767 200.371,258.835 201.559 C 259.903 202.746,262.087 205.189,263.689 206.988 C 268.239 212.096,269.127 212.857,272.157 214.239 C 275.118 215.590,279.815 216.060,281.462 215.169 C 281.832 214.969,283.138 214.368,284.363 213.834 C 291.375 210.779,294.410 201.927,290.904 194.757 C 289.305 191.488,149.514 51.010,146.225 49.368 C 143.225 47.869,140.753 48.188,139.815 50.194 M239.554 67.087 C 216.883 89.814,217.839 88.398,215.642 102.474 C 215.444 103.748,215.724 104.069,226.260 114.610 C 238.500 126.856,236.984 125.933,243.077 124.838 C 252.343 123.171,252.643 122.948,273.991 101.790 L 292.254 83.689 288.845 80.197 L 285.436 76.704 272.522 89.614 C 265.419 96.715,259.430 102.524,259.213 102.524 C 258.594 102.524,252.317 96.057,252.478 95.585 C 252.557 95.354,258.381 89.390,265.421 82.332 L 278.221 69.501 275.139 66.401 C 273.444 64.696,271.879 63.301,271.662 63.301 C 271.444 63.301,265.483 69.083,258.414 76.149 L 245.561 88.998 242.004 85.498 C 240.047 83.573,238.447 81.855,238.447 81.681 C 238.447 81.506,244.255 75.553,251.354 68.452 L 264.261 55.541 261.169 52.431 C 259.468 50.720,257.897 49.320,257.677 49.320 C 257.458 49.320,249.303 57.316,239.554 67.087 M152.158 168.447 C 124.619 196.033,126.077 194.218,126.040 200.971 C 125.977 212.656,138.467 219.383,148.241 212.929 C 149.784 211.910,192.376 169.840,196.290 165.469 L 197.046 164.624 186.972 154.545 C 181.432 149.002,176.718 144.466,176.498 144.466 C 176.277 144.466,165.324 155.257,152.158 168.447 " stroke="none" fill="#fbfbfc" fill-rule="evenodd"></path><path id="path1" d="M188.555 0.464 C 185.784 0.657,183.425 0.963,183.312 1.143 C 183.199 1.323,181.578 1.597,179.709 1.752 C 177.840 1.907,176.311 2.171,176.311 2.338 C 176.311 2.505,175.218 2.767,173.883 2.920 C 172.549 3.073,171.019 3.419,170.485 3.689 C 169.951 3.960,168.597 4.305,167.476 4.457 C 166.355 4.609,165.349 4.876,165.241 5.051 C 165.133 5.226,164.346 5.487,163.493 5.631 C 162.640 5.776,161.942 6.033,161.942 6.204 C 161.942 6.374,161.155 6.632,160.194 6.776 C 159.233 6.920,158.447 7.182,158.447 7.359 C 158.447 7.536,157.835 7.795,157.087 7.936 C 156.340 8.076,155.728 8.352,155.728 8.549 C 155.728 8.746,155.498 8.819,155.217 8.712 C 154.936 8.604,154.193 8.783,153.567 9.110 C 152.940 9.437,152.121 9.705,151.748 9.706 C 151.374 9.708,151.068 9.870,151.068 10.066 C 151.068 10.263,150.544 10.539,149.903 10.680 C 149.262 10.820,148.738 11.082,148.738 11.262 C 148.738 11.442,148.214 11.704,147.573 11.845 C 146.932 11.985,146.408 12.242,146.408 12.415 C 146.408 12.588,145.796 12.844,145.049 12.984 C 144.301 13.124,143.689 13.373,143.689 13.537 C 143.689 13.701,143.078 14.076,142.330 14.369 C 141.583 14.662,140.971 15.031,140.971 15.187 C 140.971 15.344,140.447 15.587,139.806 15.728 C 139.165 15.869,138.641 16.107,138.641 16.256 C 138.641 16.406,138.160 16.749,137.573 17.018 C 135.604 17.919,134.757 18.434,134.757 18.733 C 134.757 18.896,134.574 19.029,134.350 19.029 C 134.126 19.029,132.890 19.728,131.604 20.583 C 130.318 21.437,129.103 22.136,128.905 22.136 C 128.706 22.136,128.544 22.316,128.544 22.536 C 128.544 22.757,128.238 23.054,127.864 23.196 C 127.490 23.339,126.835 23.785,126.408 24.188 C 125.981 24.591,125.113 25.191,124.481 25.522 C 123.848 25.854,122.830 26.625,122.218 27.237 C 121.606 27.849,120.987 28.350,120.842 28.350 C 120.697 28.350,119.793 29.055,118.833 29.918 C 117.873 30.780,115.871 32.572,114.385 33.898 C 110.257 37.582,102.524 45.540,102.524 46.104 C 102.524 46.301,102.131 46.816,101.650 47.248 C 101.170 47.681,100.515 48.432,100.194 48.918 C 99.874 49.404,99.165 50.261,98.618 50.823 C 98.072 51.385,97.509 52.150,97.368 52.524 C 97.227 52.898,96.921 53.204,96.688 53.204 C 96.455 53.204,96.353 53.347,96.461 53.522 C 96.569 53.696,96.265 54.264,95.784 54.784 C 95.304 55.303,94.795 56.034,94.652 56.408 C 94.510 56.782,94.213 57.087,93.993 57.087 C 93.772 57.087,93.592 57.269,93.592 57.491 C 93.592 57.838,92.233 60.001,91.650 60.583 C 91.543 60.689,91.193 61.301,90.874 61.942 C 90.554 62.583,90.205 63.194,90.098 63.301 C 89.704 63.693,88.891 65.077,88.444 66.117 C 88.192 66.704,87.862 67.184,87.713 67.184 C 87.563 67.184,87.325 67.709,87.184 68.350 C 87.044 68.990,86.779 69.515,86.596 69.515 C 86.413 69.515,86.043 70.126,85.772 70.874 C 85.502 71.621,85.155 72.233,85.001 72.233 C 84.848 72.233,84.607 72.757,84.466 73.398 C 84.325 74.039,84.069 74.563,83.896 74.563 C 83.723 74.563,83.467 75.175,83.327 75.922 C 83.186 76.670,82.919 77.282,82.732 77.282 C 82.545 77.282,82.277 77.806,82.136 78.447 C 81.995 79.087,81.719 79.612,81.523 79.612 C 81.326 79.612,81.164 79.917,81.163 80.291 C 81.161 80.665,80.921 81.429,80.629 81.990 C 80.336 82.550,79.867 83.905,79.587 85.000 C 79.306 86.094,78.945 86.990,78.785 86.990 C 78.625 86.990,78.376 87.777,78.232 88.738 C 78.088 89.699,77.831 90.485,77.660 90.485 C 77.489 90.485,77.232 91.184,77.088 92.037 C 76.944 92.890,76.682 93.677,76.507 93.785 C 76.332 93.893,76.064 94.899,75.912 96.020 C 75.759 97.141,75.484 98.154,75.300 98.271 C 75.116 98.388,74.772 99.873,74.536 101.570 C 74.300 103.267,73.968 104.745,73.799 104.852 C 73.630 104.960,73.362 106.534,73.204 108.350 C 73.046 110.165,72.772 111.742,72.596 111.855 C 72.420 111.967,72.152 114.113,72.002 116.625 C 71.852 119.136,71.580 121.283,71.399 121.395 C 70.967 121.662,70.966 142.524,71.398 142.524 C 71.580 142.524,71.849 144.659,71.996 147.268 C 72.144 149.878,72.406 152.106,72.580 152.220 C 72.754 152.334,73.020 153.822,73.171 155.526 C 73.323 157.230,73.590 158.716,73.766 158.827 C 73.941 158.938,74.304 160.646,74.573 162.621 C 74.842 164.597,75.195 166.214,75.359 166.214 C 75.522 166.214,75.775 167.087,75.922 168.155 C 76.069 169.223,76.328 170.097,76.497 170.097 C 76.666 170.097,76.923 170.883,77.067 171.845 C 77.211 172.806,77.482 173.592,77.670 173.592 C 77.857 173.592,78.129 174.379,78.273 175.340 C 78.417 176.301,78.668 177.087,78.831 177.087 C 78.993 177.087,79.231 177.612,79.359 178.252 C 79.487 178.893,79.946 180.194,80.379 181.144 C 80.811 182.093,81.165 183.028,81.165 183.220 C 81.165 183.673,82.383 186.155,82.729 186.408 C 82.875 186.515,83.113 187.245,83.257 188.030 C 83.402 188.815,83.645 189.514,83.799 189.583 C 84.179 189.754,86.214 193.873,86.214 194.472 C 86.214 194.736,86.348 194.951,86.513 194.951 C 86.678 194.951,87.246 195.778,87.775 196.789 C 88.305 197.800,88.956 198.861,89.223 199.147 C 89.490 199.433,89.709 199.917,89.709 200.222 C 89.709 200.527,89.851 200.777,90.025 200.777 C 90.198 200.777,90.580 201.388,90.874 202.136 C 91.167 202.883,91.549 203.495,91.723 203.495 C 91.897 203.495,92.039 203.763,92.039 204.090 C 92.039 204.417,92.301 204.785,92.621 204.908 C 92.942 205.031,93.204 205.377,93.204 205.676 C 93.204 205.976,93.553 206.520,93.981 206.886 C 94.408 207.252,94.757 207.756,94.757 208.006 C 94.757 208.256,95.019 208.561,95.340 208.684 C 95.660 208.807,95.922 209.175,95.922 209.502 C 95.922 209.829,96.068 210.097,96.245 210.097 C 96.423 210.097,96.813 210.578,97.113 211.165 C 97.414 211.752,98.055 212.618,98.538 213.088 C 99.022 213.559,99.417 214.118,99.417 214.331 C 99.417 214.544,99.646 214.858,99.924 215.029 C 100.203 215.200,100.946 216.034,101.575 216.882 C 102.204 217.730,103.461 219.142,104.369 220.019 C 105.277 220.897,106.019 221.748,106.019 221.910 C 106.019 222.291,113.612 229.903,113.992 229.903 C 114.150 229.903,115.117 230.733,116.141 231.748 C 118.143 233.730,120.609 235.802,121.342 236.117 C 121.591 236.223,122.046 236.532,122.354 236.803 C 123.805 238.082,124.936 238.977,125.825 239.550 C 126.359 239.894,126.936 240.398,127.107 240.670 C 127.277 240.942,127.644 241.165,127.921 241.165 C 128.365 241.165,128.893 241.525,130.760 243.100 C 131.018 243.317,131.417 243.495,131.646 243.495 C 131.876 243.495,132.160 243.747,132.278 244.054 C 132.396 244.361,133.002 244.725,133.625 244.861 C 134.248 244.998,134.757 245.243,134.757 245.404 C 134.757 245.566,135.762 246.202,136.990 246.818 C 138.218 247.434,139.454 248.161,139.736 248.435 C 140.019 248.708,140.499 248.932,140.804 248.932 C 141.110 248.932,141.359 249.093,141.359 249.290 C 141.359 249.486,141.883 249.762,142.524 249.903 C 143.165 250.044,143.689 250.320,143.689 250.516 C 143.689 250.713,143.908 250.879,144.175 250.886 C 144.442 250.893,145.534 251.328,146.602 251.853 C 147.670 252.379,148.850 252.810,149.223 252.812 C 149.597 252.814,149.903 252.976,149.903 253.173 C 149.903 253.370,150.427 253.646,151.068 253.786 C 151.709 253.927,152.233 254.184,152.233 254.357 C 152.233 254.529,152.845 254.786,153.592 254.926 C 154.340 255.066,154.951 255.337,154.951 255.528 C 154.951 255.719,155.738 255.993,156.699 256.137 C 157.660 256.281,158.447 256.536,158.447 256.704 C 158.447 256.872,159.364 257.225,160.485 257.488 C 161.607 257.751,162.699 258.101,162.913 258.267 C 163.126 258.433,164.131 258.692,165.146 258.843 C 166.160 258.994,166.990 259.260,166.990 259.434 C 166.990 259.608,167.951 259.870,169.126 260.017 C 170.301 260.164,171.262 260.421,171.262 260.589 C 171.262 260.757,172.311 261.016,173.592 261.165 C 174.874 261.314,175.922 261.573,175.922 261.740 C 175.922 261.908,177.277 262.170,178.932 262.323 C 180.587 262.476,182.117 262.742,182.330 262.914 C 184.156 264.380,222.830 264.387,224.660 262.921 C 224.874 262.750,226.316 262.486,227.866 262.334 C 229.415 262.181,230.775 261.908,230.887 261.726 C 231.000 261.544,232.139 261.277,233.419 261.132 C 234.698 260.987,235.836 260.722,235.947 260.543 C 236.058 260.363,237.015 260.102,238.074 259.961 C 239.133 259.821,240.000 259.576,240.000 259.417 C 240.000 259.259,240.874 259.013,241.942 258.872 C 243.010 258.730,243.883 258.461,243.883 258.273 C 243.883 258.086,244.626 257.810,245.534 257.661 C 246.442 257.512,247.918 257.059,248.814 256.656 C 249.710 256.252,250.715 255.922,251.047 255.922 C 251.379 255.922,251.650 255.748,251.650 255.534 C 251.650 255.320,252.044 255.144,252.524 255.143 C 253.005 255.142,253.922 254.793,254.563 254.369 C 255.204 253.945,256.121 253.596,256.602 253.595 C 257.083 253.593,257.476 253.445,257.476 253.265 C 257.476 253.086,258.175 252.729,259.029 252.473 C 259.883 252.217,260.583 251.854,260.583 251.666 C 260.583 251.478,261.107 251.209,261.748 251.068 C 262.388 250.927,262.913 250.665,262.913 250.485 C 262.913 250.306,263.437 250.044,264.078 249.903 C 264.718 249.762,265.243 249.500,265.243 249.320 C 265.243 249.141,265.767 248.879,266.408 248.738 C 267.049 248.597,267.573 248.354,267.573 248.197 C 267.573 248.040,268.184 247.672,268.932 247.379 C 269.680 247.085,270.291 246.703,270.291 246.529 C 270.291 246.356,270.559 246.214,270.886 246.214 C 271.213 246.214,271.575 245.967,271.691 245.666 C 271.806 245.365,272.367 245.002,272.937 244.859 C 273.507 244.716,274.062 244.481,274.171 244.338 C 274.558 243.829,276.868 242.330,277.266 242.330 C 277.488 242.330,277.670 242.146,277.670 241.922 C 277.670 241.697,278.194 241.330,278.835 241.107 C 279.476 240.883,280.000 240.543,280.000 240.350 C 280.000 240.158,280.204 240.000,280.453 240.000 C 280.702 240.000,281.183 239.743,281.521 239.428 C 284.137 236.998,284.728 236.505,285.029 236.505 C 285.430 236.505,286.702 235.461,289.405 232.913 C 290.481 231.898,291.496 231.068,291.661 231.068 C 292.055 231.068,302.524 220.568,302.524 220.172 C 302.524 220.004,303.223 219.180,304.078 218.343 C 304.932 217.505,305.631 216.694,305.631 216.541 C 305.631 216.387,306.066 215.792,306.598 215.218 C 308.084 213.615,309.515 211.764,309.515 211.445 C 309.515 211.287,309.951 210.752,310.485 210.257 C 311.019 209.762,311.456 209.255,311.456 209.129 C 311.456 208.800,313.150 206.432,313.495 206.278 C 313.655 206.207,313.786 205.996,313.786 205.810 C 313.786 205.492,315.303 203.024,316.064 202.106 C 316.254 201.876,316.530 201.308,316.678 200.844 C 316.825 200.380,317.095 200.000,317.277 200.000 C 317.459 200.000,317.720 199.490,317.857 198.867 C 317.994 198.244,318.357 197.638,318.665 197.520 C 318.972 197.402,319.223 197.038,319.223 196.711 C 319.223 196.384,319.375 196.117,319.561 196.117 C 319.747 196.117,320.119 195.330,320.388 194.369 C 320.657 193.408,321.011 192.621,321.173 192.621 C 321.336 192.621,321.579 192.184,321.713 191.650 C 321.847 191.117,322.114 190.680,322.307 190.680 C 322.499 190.680,322.772 190.155,322.913 189.515 C 323.053 188.874,323.329 188.350,323.526 188.350 C 323.723 188.350,323.883 188.165,323.883 187.940 C 323.883 187.715,324.207 186.797,324.603 185.901 C 325.722 183.367,325.953 182.741,325.887 182.427 C 325.853 182.267,325.980 182.136,326.169 182.136 C 326.359 182.136,326.632 181.350,326.776 180.388 C 326.920 179.427,327.194 178.641,327.385 178.641 C 327.576 178.641,327.847 178.029,327.987 177.282 C 328.127 176.534,328.386 175.922,328.563 175.922 C 328.740 175.922,329.002 175.136,329.147 174.175 C 329.291 173.214,329.553 172.427,329.729 172.427 C 329.905 172.427,330.172 171.597,330.321 170.583 C 330.471 169.568,330.706 168.650,330.844 168.544 C 331.143 168.312,332.039 164.000,332.039 162.792 C 332.039 162.324,332.200 161.942,332.396 161.942 C 332.593 161.942,332.876 160.803,333.025 159.412 C 333.174 158.021,333.434 156.797,333.603 156.692 C 333.773 156.588,334.035 154.973,334.186 153.105 C 334.337 151.237,334.659 149.463,334.901 149.164 C 335.513 148.404,335.524 115.431,334.912 115.034 C 334.677 114.882,334.364 113.278,334.217 111.469 C 334.069 109.661,333.807 108.088,333.634 107.974 C 333.461 107.860,333.197 106.549,333.048 105.059 C 332.898 103.570,332.636 102.259,332.464 102.147 C 332.293 102.034,331.931 100.500,331.660 98.738 C 331.389 96.976,331.030 95.534,330.863 95.534 C 330.695 95.534,330.438 94.660,330.291 93.592 C 330.144 92.524,329.886 91.650,329.716 91.650 C 329.547 91.650,329.291 90.864,329.147 89.903 C 329.002 88.942,328.728 88.155,328.537 88.155 C 328.347 88.155,328.076 87.544,327.936 86.796 C 327.795 86.049,327.525 85.437,327.335 85.437 C 327.146 85.437,326.990 85.099,326.990 84.685 C 326.990 84.272,326.786 83.442,326.537 82.841 C 326.288 82.240,326.055 81.660,326.019 81.553 C 325.984 81.447,325.751 80.867,325.501 80.266 C 325.252 79.665,325.049 79.009,325.049 78.810 C 325.049 78.610,324.893 78.447,324.703 78.447 C 324.514 78.447,324.244 77.835,324.103 77.087 C 323.963 76.340,323.695 75.728,323.508 75.728 C 323.321 75.728,323.053 75.204,322.913 74.563 C 322.772 73.922,322.515 73.398,322.341 73.398 C 322.168 73.398,321.906 72.919,321.759 72.334 C 321.612 71.749,321.375 71.181,321.231 71.072 C 321.088 70.963,320.447 69.825,319.806 68.544 C 319.165 67.262,318.510 66.155,318.350 66.084 C 318.189 66.013,318.058 65.734,318.058 65.464 C 318.058 65.194,317.709 64.570,317.282 64.078 C 316.854 63.585,316.505 62.947,316.505 62.659 C 316.505 62.371,316.351 62.136,316.163 62.136 C 315.975 62.136,315.334 61.175,314.740 60.000 C 314.146 58.825,313.525 57.864,313.361 57.864 C 313.196 57.864,312.942 57.487,312.796 57.027 C 312.650 56.566,312.114 55.803,311.605 55.332 C 311.096 54.860,310.680 54.282,310.680 54.047 C 310.680 53.812,310.330 53.433,309.903 53.204 C 309.476 52.975,309.126 52.531,309.126 52.216 C 309.126 51.901,308.777 51.344,308.350 50.978 C 307.922 50.612,307.573 50.163,307.573 49.981 C 307.573 49.798,307.092 49.151,306.505 48.543 C 305.917 47.935,305.161 47.077,304.824 46.635 C 302.894 44.106,293.835 34.563,293.364 34.563 C 293.237 34.563,292.241 33.689,291.150 32.621 C 290.059 31.553,288.970 30.680,288.729 30.680 C 288.488 30.680,287.780 30.068,287.157 29.320 C 286.534 28.573,285.804 27.961,285.536 27.961 C 285.268 27.961,285.048 27.830,285.048 27.670 C 285.047 27.510,284.265 26.854,283.309 26.214 C 282.353 25.573,281.567 24.917,281.562 24.757 C 281.557 24.597,281.286 24.466,280.959 24.466 C 280.632 24.466,280.263 24.204,280.140 23.883 C 280.017 23.563,279.672 23.301,279.372 23.301 C 279.072 23.301,278.528 22.951,278.162 22.524 C 277.797 22.097,277.274 21.748,277.001 21.748 C 276.728 21.748,276.505 21.605,276.505 21.432 C 276.505 21.258,275.893 20.876,275.146 20.583 C 274.398 20.289,273.786 19.919,273.786 19.760 C 273.786 19.600,273.401 19.348,272.931 19.198 C 272.460 19.049,271.855 18.731,271.585 18.492 C 270.288 17.343,269.897 17.101,268.965 16.867 C 268.413 16.728,267.961 16.459,267.961 16.269 C 267.961 16.078,267.720 15.922,267.426 15.922 C 267.132 15.922,266.674 15.661,266.409 15.342 C 266.144 15.022,265.249 14.558,264.420 14.309 C 263.591 14.061,262.913 13.724,262.913 13.562 C 262.913 13.399,262.388 13.150,261.748 13.010 C 261.107 12.869,260.583 12.601,260.583 12.414 C 260.583 12.227,259.971 11.959,259.223 11.819 C 258.476 11.679,257.864 11.423,257.864 11.250 C 257.864 11.077,257.340 10.820,256.699 10.680 C 256.058 10.539,255.534 10.263,255.534 10.066 C 255.534 9.870,255.262 9.709,254.930 9.709 C 254.598 9.709,253.549 9.355,252.600 8.922 C 251.651 8.490,250.349 8.031,249.709 7.903 C 249.068 7.775,248.544 7.537,248.544 7.374 C 248.544 7.212,247.757 6.961,246.796 6.816 C 245.835 6.672,245.049 6.401,245.049 6.214 C 245.049 6.026,244.262 5.755,243.301 5.611 C 242.340 5.467,241.553 5.216,241.553 5.054 C 241.553 4.893,240.687 4.645,239.628 4.505 C 238.568 4.364,237.606 4.095,237.490 3.906 C 237.373 3.717,235.706 3.348,233.784 3.086 C 231.863 2.823,230.291 2.476,230.291 2.315 C 230.291 2.154,228.850 1.896,227.087 1.742 C 225.325 1.587,223.796 1.326,223.689 1.161 C 223.048 0.173,199.434 -0.296,188.555 0.464 M146.796 48.961 C 148.135 49.646,288.400 189.826,289.905 191.984 C 292.359 195.502,293.010 197.444,293.008 201.244 C 293.008 203.424,292.835 204.796,292.523 205.108 C 292.257 205.374,292.039 205.866,292.039 206.200 C 292.039 211.910,278.968 218.587,273.592 215.623 C 273.165 215.387,272.007 214.814,271.019 214.349 C 268.491 213.158,267.217 211.899,257.682 201.165 C 250.642 193.240,245.300 187.269,243.297 185.087 C 243.082 184.852,241.518 183.087,239.821 181.165 C 238.125 179.243,236.188 177.058,235.516 176.311 C 234.844 175.563,233.350 173.893,232.196 172.600 C 231.042 171.306,228.961 168.977,227.573 167.424 C 226.184 165.871,224.699 164.208,224.272 163.730 C 223.845 163.251,222.709 161.982,221.748 160.911 C 220.786 159.839,218.922 157.754,217.604 156.277 C 216.287 154.801,214.532 152.839,213.706 151.919 L 212.202 150.245 208.270 154.230 L 204.337 158.215 173.523 127.360 C 143.124 96.921,141.101 94.745,138.515 89.709 C 137.224 87.196,135.534 82.226,135.534 80.944 C 135.534 80.450,135.376 79.949,135.184 79.830 C 133.828 78.991,134.643 63.261,136.282 58.641 C 136.472 58.107,137.090 56.184,137.655 54.369 C 139.757 47.625,141.808 46.411,146.796 48.961 M261.559 51.839 C 263.371 53.652,264.854 55.303,264.854 55.509 C 264.854 55.715,259.057 61.672,251.972 68.746 L 239.090 81.608 242.362 84.881 L 245.635 88.154 258.418 75.339 C 265.449 68.291,271.394 62.524,271.628 62.524 C 271.863 62.524,273.609 64.086,275.508 65.994 L 278.962 69.463 266.083 82.360 C 258.999 89.453,253.204 95.446,253.204 95.677 C 253.204 96.215,258.683 101.748,259.214 101.746 C 259.433 101.745,265.204 96.136,272.039 89.281 C 278.874 82.426,284.742 76.670,285.078 76.489 C 285.733 76.139,293.064 83.063,292.759 83.743 C 292.676 83.927,284.223 92.389,273.974 102.547 C 255.898 120.464,255.247 121.062,252.233 122.502 C 247.502 124.763,248.332 124.512,241.165 125.843 C 237.219 126.575,238.112 127.205,226.130 115.249 C 213.980 103.127,214.487 103.807,215.274 100.686 C 215.585 99.454,215.963 97.354,216.113 96.019 C 216.264 94.683,216.545 93.493,216.737 93.374 C 216.930 93.255,217.087 92.897,217.087 92.577 C 217.087 91.710,218.546 88.674,220.035 86.439 C 221.535 84.189,257.037 48.544,257.778 48.544 C 258.045 48.544,259.746 50.027,261.559 51.839 M187.267 154.070 C 192.991 159.780,197.627 164.594,197.569 164.768 C 197.388 165.312,151.747 210.909,149.903 212.389 C 143.136 217.820,135.390 217.258,129.039 210.874 C 126.282 208.103,125.631 206.211,125.631 200.971 C 125.631 194.662,126.032 193.932,133.935 185.860 C 145.860 173.682,176.123 143.690,176.488 143.690 C 176.693 143.690,181.543 148.361,187.267 154.070 M326.287 312.763 C 326.402 341.466,326.377 342.784,325.731 341.804 C 325.358 341.239,325.053 340.558,325.051 340.291 C 325.050 340.024,324.888 339.806,324.691 339.806 C 324.494 339.806,324.218 339.282,324.078 338.641 C 323.937 338.000,323.661 337.476,323.464 337.476 C 323.268 337.476,323.107 337.208,323.107 336.881 C 323.107 336.554,322.855 336.190,322.548 336.072 C 322.241 335.954,321.877 335.348,321.740 334.725 C 321.604 334.102,321.345 333.592,321.165 333.592 C 320.985 333.592,320.721 333.056,320.577 332.401 C 320.433 331.746,320.080 331.119,319.793 331.009 C 319.506 330.899,319.159 330.299,319.022 329.676 C 318.885 329.053,318.616 328.544,318.423 328.544 C 318.231 328.544,317.963 328.107,317.829 327.573 C 317.695 327.039,317.430 326.602,317.239 326.602 C 317.049 326.602,316.893 326.334,316.893 326.007 C 316.893 325.680,316.642 325.316,316.334 325.198 C 316.027 325.080,315.661 324.462,315.521 323.825 C 315.381 323.187,315.037 322.578,314.756 322.470 C 314.475 322.362,314.138 321.850,314.008 321.331 C 313.878 320.813,313.600 320.388,313.391 320.388 C 313.181 320.388,313.010 320.121,313.010 319.794 C 313.010 319.467,312.758 319.102,312.451 318.984 C 312.144 318.867,311.783 318.275,311.650 317.670 C 311.518 317.065,311.157 316.473,310.850 316.355 C 310.543 316.237,310.291 315.892,310.291 315.588 C 310.291 315.283,310.052 314.943,309.759 314.830 C 309.466 314.718,309.102 314.133,308.951 313.530 C 308.800 312.928,308.559 312.346,308.416 312.237 C 308.034 311.946,306.408 309.584,306.408 309.320 C 306.408 309.195,306.189 308.833,305.922 308.514 C 305.655 308.195,305.262 307.722,305.049 307.462 C 304.835 307.203,304.355 306.379,303.983 305.631 C 303.017 303.691,302.401 302.764,301.845 302.408 C 301.578 302.237,301.359 301.844,301.359 301.534 C 301.359 301.224,301.184 300.971,300.971 300.971 C 300.757 300.971,300.583 300.721,300.583 300.416 C 300.583 300.111,300.364 299.624,300.097 299.333 C 299.572 298.762,298.813 297.517,297.958 295.825 C 297.662 295.238,297.276 294.757,297.101 294.757 C 296.926 294.757,296.674 294.320,296.540 293.786 C 296.406 293.252,296.124 292.816,295.915 292.816 C 295.705 292.816,295.534 292.548,295.534 292.221 C 295.534 291.894,295.283 291.530,294.975 291.412 C 294.668 291.294,294.304 290.688,294.168 290.065 C 294.031 289.442,293.753 288.932,293.549 288.932 C 293.346 288.932,293.066 288.626,292.927 288.252 C 292.677 287.581,291.276 285.424,290.845 285.049 C 290.723 284.942,290.510 284.549,290.372 284.175 C 290.148 283.567,289.480 283.495,284.090 283.495 L 278.058 283.495 278.058 321.748 L 278.058 360.000 283.149 360.000 L 288.239 360.000 288.100 329.552 C 288.024 312.805,288.095 299.186,288.259 299.287 C 288.422 299.388,288.456 299.634,288.333 299.833 C 288.210 300.031,288.281 300.194,288.490 300.194 C 288.699 300.194,288.985 300.718,289.126 301.359 C 289.267 302.000,289.543 302.524,289.740 302.524 C 289.936 302.524,290.097 302.792,290.097 303.119 C 290.097 303.446,290.349 303.810,290.656 303.928 C 290.963 304.046,291.327 304.652,291.463 305.275 C 291.600 305.898,291.854 306.408,292.028 306.408 C 292.201 306.408,292.461 306.878,292.605 307.452 C 292.749 308.026,293.205 308.971,293.618 309.551 C 294.031 310.131,294.369 310.797,294.369 311.031 C 294.369 311.265,294.544 311.456,294.757 311.456 C 294.971 311.456,295.146 311.724,295.146 312.051 C 295.146 312.378,295.397 312.742,295.704 312.860 C 296.012 312.978,296.375 313.584,296.512 314.207 C 296.649 314.830,296.918 315.340,297.111 315.340 C 297.303 315.340,297.571 315.777,297.705 316.311 C 297.839 316.845,298.071 317.282,298.222 317.282 C 298.373 317.282,298.736 317.893,299.029 318.641 C 299.322 319.388,299.705 320.000,299.878 320.000 C 300.052 320.000,300.194 320.268,300.194 320.595 C 300.194 320.922,300.441 321.284,300.742 321.400 C 301.043 321.515,301.396 322.034,301.526 322.552 C 301.656 323.071,301.934 323.495,302.143 323.495 C 302.353 323.495,302.524 323.763,302.524 324.090 C 302.524 324.417,302.776 324.781,303.083 324.899 C 303.390 325.017,303.754 325.622,303.890 326.244 C 304.027 326.865,304.343 327.506,304.593 327.668 C 305.091 327.988,305.760 328.975,306.503 330.485 C 306.766 331.019,307.202 331.687,307.471 331.969 C 307.741 332.252,307.961 332.732,307.961 333.037 C 307.961 333.343,308.123 333.592,308.321 333.592 C 308.519 333.592,308.924 334.073,309.221 334.660 C 310.075 336.351,310.834 337.597,311.359 338.168 C 311.626 338.459,311.845 338.871,311.845 339.085 C 311.845 339.298,312.063 339.717,312.330 340.014 C 313.320 341.118,313.638 341.570,313.891 342.233 C 314.034 342.607,314.312 342.913,314.509 342.913 C 314.706 342.913,314.981 343.367,315.121 343.922 C 315.335 344.778,316.605 346.915,317.289 347.573 C 317.401 347.680,317.705 348.204,317.966 348.738 C 318.549 349.930,319.336 351.196,319.656 351.456 C 319.898 351.653,322.201 355.519,322.908 356.913 C 323.118 357.329,323.424 357.670,323.587 357.670 C 323.750 357.670,323.883 357.893,323.883 358.166 C 323.883 359.631,325.293 360.000,330.880 360.000 L 336.314 360.000 336.215 321.456 L 336.117 282.913 331.141 282.804 L 326.166 282.695 326.287 312.763 M8.155 321.748 L 8.155 360.000 29.903 360.000 L 51.650 360.000 51.650 355.534 L 51.650 351.068 35.340 351.068 L 19.029 351.068 19.029 317.282 L 19.029 283.495 13.592 283.495 L 8.155 283.495 8.155 321.748 M61.748 321.748 L 61.748 360.000 66.990 360.000 L 72.233 360.000 72.233 321.748 L 72.233 283.495 66.990 283.495 L 61.748 283.495 61.748 321.748 M88.155 321.748 L 88.155 360.000 93.398 360.000 L 98.641 360.000 98.641 342.718 L 98.641 325.437 113.010 325.437 L 127.379 325.437 127.379 320.971 L 127.379 316.505 113.010 316.505 L 98.641 316.505 98.641 304.466 L 98.641 292.427 114.175 292.427 L 129.709 292.427 129.709 287.961 L 129.709 283.495 108.932 283.495 L 88.155 283.495 88.155 321.748 M143.301 321.748 L 143.301 360.000 164.854 360.000 L 186.408 360.000 186.408 355.534 L 186.408 351.068 170.097 351.068 L 153.786 351.068 153.786 337.869 L 153.786 324.670 168.447 324.568 L 183.107 324.466 183.216 319.903 L 183.326 315.340 168.556 315.340 L 153.786 315.340 153.786 303.883 L 153.786 292.427 169.320 292.427 L 184.854 292.427 184.854 287.961 L 184.854 283.495 164.078 283.495 L 143.301 283.495 143.301 321.748 M198.447 321.748 L 198.447 360.000 220.000 360.000 L 241.553 360.000 241.553 355.534 L 241.553 351.068 225.243 351.068 L 208.932 351.068 208.932 317.282 L 208.932 283.495 203.689 283.495 L 198.447 283.495 198.447 321.748 M251.650 321.748 L 251.650 360.000 257.087 360.000 L 262.524 360.000 262.524 321.748 L 262.524 283.495 257.087 283.495 L 251.650 283.495 251.650 321.748 M352.621 321.748 L 352.621 360.000 374.175 360.000 L 395.728 360.000 395.728 355.534 L 395.728 351.068 379.417 351.068 L 363.107 351.068 363.107 337.864 L 363.107 324.660 377.670 324.660 L 392.233 324.660 392.233 320.000 L 392.233 315.340 377.670 315.340 L 363.107 315.340 363.107 303.883 L 363.107 292.427 378.641 292.427 L 394.175 292.427 394.175 287.961 L 394.175 283.495 373.398 283.495 L 352.621 283.495 352.621 321.748 " stroke="none" fill="#64b4e4" fill-rule="evenodd"></path><path id="path2" d="M140.035 48.876 C 139.605 49.571,138.996 51.439,139.319 51.068 C 139.748 50.577,140.621 48.544,140.403 48.544 C 140.313 48.544,140.148 48.693,140.035 48.876 M239.610 66.699 L 221.942 84.466 239.613 66.893 C 249.333 57.228,257.463 49.320,257.681 49.320 C 257.898 49.320,259.468 50.720,261.169 52.431 L 264.261 55.541 251.306 68.500 C 243.162 76.646,238.429 81.657,238.562 81.992 C 238.730 82.414,238.780 82.404,238.804 81.944 C 238.821 81.625,244.643 75.553,251.742 68.452 L 264.649 55.540 261.362 52.236 C 259.555 50.419,257.896 48.932,257.677 48.932 C 257.458 48.932,249.328 56.927,239.610 66.699 M217.476 119.806 C 255.815 158.146,287.271 189.515,287.378 189.515 C 287.485 189.515,256.203 158.146,217.864 119.806 C 179.525 81.466,148.069 50.097,147.962 50.097 C 147.855 50.097,179.136 81.466,217.476 119.806 M136.921 57.309 C 136.778 57.878,136.736 58.419,136.828 58.511 C 136.919 58.602,137.111 58.211,137.254 57.642 C 137.397 57.073,137.439 56.532,137.347 56.441 C 137.256 56.349,137.064 56.740,136.921 57.309 M135.750 62.352 C 135.604 63.131,135.562 63.846,135.656 63.941 C 135.751 64.036,135.949 63.476,136.095 62.697 C 136.241 61.918,136.283 61.202,136.188 61.107 C 136.093 61.012,135.896 61.572,135.750 62.352 M258.482 75.693 C 249.693 84.485,245.512 88.412,245.086 88.278 C 244.547 88.108,244.542 88.136,245.049 88.498 C 245.521 88.835,248.051 86.496,258.449 76.107 C 265.498 69.064,271.436 63.301,271.644 63.301 C 271.852 63.301,273.424 64.655,275.137 66.311 L 278.252 69.320 275.155 66.117 C 273.451 64.354,271.877 62.913,271.657 62.913 C 271.438 62.913,265.509 68.664,258.482 75.693 M134.895 72.039 C 134.894 73.961,134.960 74.797,135.041 73.895 C 135.123 72.994,135.123 71.421,135.043 70.400 C 134.963 69.379,134.896 70.117,134.895 72.039 M272.427 89.320 C 265.381 96.369,259.436 102.136,259.216 102.136 C 257.947 102.136,252.639 95.906,253.175 95.045 C 253.671 94.249,253.662 94.220,253.072 94.708 C 252.717 95.001,252.427 95.442,252.427 95.687 C 252.427 96.226,258.693 102.524,259.229 102.524 C 259.437 102.524,265.418 96.716,272.519 89.617 L 285.431 76.709 289.026 80.199 L 292.621 83.689 289.134 80.097 C 287.216 78.121,285.555 76.505,285.443 76.505 C 285.330 76.505,279.473 82.272,272.427 89.320 M135.600 80.388 C 135.620 81.397,136.231 83.055,136.245 82.136 C 136.251 81.709,136.106 81.010,135.922 80.583 C 135.718 80.107,135.593 80.031,135.600 80.388 M274.173 101.650 L 256.893 119.029 274.272 101.749 C 283.830 92.245,291.650 84.425,291.650 84.371 C 291.650 84.097,290.234 85.497,274.173 101.650 M142.913 96.044 C 142.913 96.111,143.481 96.679,144.175 97.306 L 145.437 98.447 144.296 97.184 C 143.233 96.008,142.913 95.744,142.913 96.044 M216.012 99.029 C 216.012 99.777,216.092 100.083,216.190 99.709 C 216.288 99.335,216.288 98.723,216.190 98.350 C 216.092 97.976,216.012 98.282,216.012 99.029 M145.243 98.660 C 145.350 98.758,154.786 108.097,166.214 119.411 L 186.990 139.983 168.350 121.229 C 158.097 110.914,148.660 101.575,147.379 100.477 C 146.097 99.379,145.136 98.561,145.243 98.660 M217.071 105.728 C 218.023 106.743,218.853 107.573,218.916 107.573 C 219.207 107.573,218.899 107.224,217.184 105.615 L 215.340 103.883 217.071 105.728 M220.955 109.612 C 222.564 111.326,222.913 111.635,222.913 111.343 C 222.913 111.281,222.083 110.451,221.068 109.498 L 219.223 107.767 220.955 109.612 M226.602 115.340 C 227.870 116.621,228.995 117.670,229.102 117.670 C 229.209 117.670,228.258 116.621,226.990 115.340 C 225.722 114.058,224.597 113.010,224.490 113.010 C 224.384 113.010,225.334 114.058,226.602 115.340 M232.816 121.553 C 234.729 123.476,236.382 125.049,236.489 125.049 C 236.595 125.049,235.117 123.476,233.204 121.553 C 231.290 119.631,229.638 118.058,229.531 118.058 C 229.424 118.058,230.902 119.631,232.816 121.553 M243.883 124.660 C 242.556 124.940,242.552 124.947,243.689 124.970 C 244.330 124.983,245.204 124.844,245.631 124.660 C 246.565 124.259,245.790 124.259,243.883 124.660 M238.155 125.705 C 238.529 125.802,239.141 125.802,239.515 125.705 C 239.888 125.607,239.583 125.527,238.835 125.527 C 238.087 125.527,237.782 125.607,238.155 125.705 M191.262 144.466 C 193.604 146.816,195.608 148.738,195.715 148.738 C 195.822 148.738,193.993 146.816,191.650 144.466 C 189.308 142.117,187.305 140.194,187.198 140.194 C 187.091 140.194,188.920 142.117,191.262 144.466 M152.717 167.477 C 139.849 180.347,129.320 190.966,129.320 191.077 C 129.320 191.187,139.848 180.745,152.714 167.872 C 165.581 154.999,176.283 144.466,176.498 144.466 C 176.712 144.466,181.433 148.966,186.988 154.466 L 197.087 164.466 186.993 154.272 C 181.441 148.665,176.722 144.078,176.506 144.078 C 176.291 144.078,165.586 154.607,152.717 167.477 M211.805 150.000 C 211.652 150.267,211.673 150.352,211.853 150.189 C 212.032 150.026,212.716 150.375,213.371 150.965 L 214.563 152.039 213.422 150.777 C 212.116 149.331,212.174 149.359,211.805 150.000 M197.282 150.398 C 197.282 150.457,198.636 151.811,200.291 153.408 L 203.301 156.311 200.398 153.301 C 197.702 150.506,197.282 150.114,197.282 150.398 M207.704 153.958 C 204.640 157.122,204.276 157.384,203.626 156.893 C 202.941 156.375,202.940 156.383,203.598 157.100 C 204.266 157.829,204.372 157.758,207.852 154.278 C 209.815 152.315,211.342 150.659,211.245 150.597 C 211.147 150.535,209.554 152.047,207.704 153.958 M216.699 154.757 C 217.424 155.505,218.104 156.117,218.211 156.117 C 218.317 156.117,217.812 155.505,217.087 154.757 C 216.363 154.010,215.683 153.398,215.576 153.398 C 215.469 153.398,215.974 154.010,216.699 154.757 M218.252 156.626 C 218.252 156.693,218.820 157.261,219.515 157.889 L 220.777 159.029 219.636 157.767 C 218.573 156.591,218.252 156.326,218.252 156.626 M221.748 160.510 C 221.748 160.577,222.316 161.145,223.010 161.772 L 224.272 162.913 223.131 161.650 C 222.068 160.474,221.748 160.210,221.748 160.510 M224.466 163.350 C 224.466 163.554,225.289 164.501,226.294 165.453 L 228.123 167.184 226.422 165.243 C 225.487 164.175,224.664 163.228,224.594 163.139 C 224.524 163.050,224.466 163.145,224.466 163.350 M229.126 168.738 C 229.851 169.485,230.531 170.097,230.638 170.097 C 230.745 170.097,230.239 169.485,229.515 168.738 C 228.790 167.990,228.110 167.379,228.003 167.379 C 227.896 167.379,228.402 167.990,229.126 168.738 M231.845 171.772 C 231.845 171.839,232.413 172.407,233.107 173.034 L 234.369 174.175 233.228 172.913 C 232.165 171.736,231.845 171.472,231.845 171.772 M187.743 174.078 L 186.602 175.340 187.864 174.199 C 189.041 173.136,189.305 172.816,189.005 172.816 C 188.938 172.816,188.370 173.383,187.743 174.078 M236.100 176.408 C 237.053 177.422,237.883 178.252,237.945 178.252 C 238.237 178.252,237.928 177.904,236.214 176.294 L 234.369 174.563 236.100 176.408 M239.223 180.000 C 239.948 180.748,240.628 181.359,240.735 181.359 C 240.842 181.359,240.336 180.748,239.612 180.000 C 238.887 179.252,238.207 178.641,238.100 178.641 C 237.993 178.641,238.499 179.252,239.223 180.000 M241.165 181.992 C 241.165 182.198,241.908 183.057,242.816 183.902 L 244.466 185.437 242.913 183.695 C 242.058 182.737,241.316 181.878,241.262 181.786 C 241.209 181.694,241.165 181.787,241.165 181.992 M246.019 187.573 C 246.854 188.427,247.624 189.126,247.730 189.126 C 247.837 189.126,247.242 188.427,246.408 187.573 C 245.573 186.718,244.804 186.019,244.697 186.019 C 244.590 186.019,245.185 186.718,246.019 187.573 M171.432 190.388 L 170.291 191.650 171.553 190.510 C 172.248 189.883,172.816 189.315,172.816 189.248 C 172.816 188.948,172.495 189.212,171.432 190.388 M249.126 191.068 C 249.960 191.922,250.730 192.621,250.837 192.621 C 250.944 192.621,250.349 191.922,249.515 191.068 C 248.680 190.214,247.910 189.515,247.804 189.515 C 247.697 189.515,248.292 190.214,249.126 191.068 M287.379 190.024 C 287.379 190.091,287.947 190.659,288.641 191.287 L 289.903 192.427 288.762 191.165 C 287.699 189.989,287.379 189.724,287.379 190.024 M250.874 193.131 C 250.874 193.198,251.442 193.766,252.136 194.393 L 253.398 195.534 252.257 194.272 C 251.194 193.095,250.874 192.831,250.874 193.131 M255.534 198.252 C 256.259 199.000,256.939 199.612,257.046 199.612 C 257.152 199.612,256.647 199.000,255.922 198.252 C 255.198 197.505,254.518 196.893,254.411 196.893 C 254.304 196.893,254.809 197.505,255.534 198.252 M125.682 198.482 C 125.547 199.157,125.461 200.517,125.490 201.505 C 125.531 202.921,125.607 202.685,125.846 200.389 C 126.168 197.312,126.092 196.432,125.682 198.482 M292.548 200.971 C 292.550 202.252,292.622 202.730,292.709 202.032 C 292.795 201.334,292.793 200.285,292.705 199.702 C 292.616 199.118,292.545 199.689,292.548 200.971 M258.625 201.650 C 260.234 203.365,260.583 203.673,260.583 203.382 C 260.583 203.320,259.752 202.489,258.738 201.537 L 256.893 199.806 258.625 201.650 M261.748 205.243 C 262.472 205.990,263.152 206.602,263.259 206.602 C 263.366 206.602,262.860 205.990,262.136 205.243 C 261.411 204.495,260.731 203.883,260.624 203.883 C 260.518 203.883,261.023 204.495,261.748 205.243 M264.466 208.277 C 264.466 208.344,265.034 208.912,265.728 209.539 L 266.990 210.680 265.850 209.417 C 264.786 208.241,264.466 207.977,264.466 208.277 M287.767 211.717 C 286.749 212.641,286.506 212.976,287.184 212.519 C 288.257 211.797,290.037 210.075,289.672 210.114 C 289.585 210.123,288.728 210.844,287.767 211.717 M149.709 211.903 C 148.539 212.948,148.452 213.092,149.355 212.489 C 150.428 211.771,151.778 210.463,151.407 210.500 C 151.327 210.508,150.563 211.139,149.709 211.903 M132.039 212.990 C 132.039 213.097,132.563 213.455,133.204 213.786 C 133.845 214.118,134.369 214.301,134.369 214.195 C 134.369 214.088,133.845 213.729,133.204 213.398 C 132.563 213.067,132.039 212.883,132.039 212.990 M282.039 214.769 C 280.738 215.292,280.981 215.558,282.330 215.087 C 282.971 214.864,283.495 214.611,283.495 214.525 C 283.495 214.295,283.022 214.374,282.039 214.769 M136.505 215.146 C 136.932 215.329,137.544 215.479,137.864 215.479 C 138.231 215.479,138.159 215.356,137.670 215.146 C 137.243 214.962,136.631 214.812,136.311 214.812 C 135.944 214.812,136.015 214.935,136.505 215.146 M276.796 215.815 C 277.490 215.901,278.626 215.901,279.320 215.815 C 280.015 215.729,279.447 215.658,278.058 215.658 C 276.670 215.658,276.102 215.729,276.796 215.815 " stroke="none" fill="#c3e3f4" fill-rule="evenodd"></path><path id="path3" d="M260.971 51.845 C 262.777 53.660,264.342 55.146,264.449 55.146 C 264.556 55.146,263.165 53.660,261.359 51.845 C 259.553 50.029,257.988 48.544,257.881 48.544 C 257.774 48.544,259.165 50.029,260.971 51.845 M252.037 68.252 L 239.806 80.583 252.136 68.352 C 263.595 56.985,264.641 55.922,264.367 55.922 C 264.312 55.922,258.763 61.471,252.037 68.252 M262.715 71.165 L 254.175 79.806 262.898 71.262 C 267.696 66.563,271.701 62.675,271.798 62.621 C 271.895 62.568,271.812 62.524,271.615 62.524 C 271.417 62.524,267.412 66.413,262.715 71.165 M283.283 78.155 L 281.748 79.806 283.398 78.271 C 284.933 76.843,285.227 76.505,284.933 76.505 C 284.870 76.505,284.127 77.248,283.283 78.155 M249.508 84.369 L 245.243 88.738 249.612 84.473 C 253.670 80.511,254.157 80.000,253.877 80.000 C 253.820 80.000,251.854 81.966,249.508 84.369 M275.917 85.534 L 270.485 91.068 276.019 85.636 C 281.160 80.590,281.729 80.000,281.451 80.000 C 281.395 80.000,278.905 82.490,275.917 85.534 M241.748 85.049 C 243.446 86.757,244.924 88.155,245.030 88.155 C 245.137 88.155,243.835 86.757,242.136 85.049 C 240.437 83.340,238.960 81.942,238.853 81.942 C 238.746 81.942,240.049 83.340,241.748 85.049 M264.655 96.796 L 259.223 102.330 264.757 96.898 C 269.898 91.853,270.467 91.262,270.189 91.262 C 270.133 91.262,267.642 93.752,264.655 96.796 M175.146 128.738 C 190.416 144.010,202.998 156.505,203.105 156.505 C 203.212 156.505,190.805 144.010,175.534 128.738 C 160.263 113.466,147.682 100.971,147.575 100.971 C 147.468 100.971,159.875 113.466,175.146 128.738 M215.236 102.913 C 215.236 103.660,215.316 103.966,215.413 103.592 C 215.511 103.218,215.511 102.607,215.413 102.233 C 215.316 101.859,215.236 102.165,215.236 102.913 M217.087 106.214 C 217.812 106.961,218.492 107.573,218.599 107.573 C 218.706 107.573,218.200 106.961,217.476 106.214 C 216.751 105.466,216.071 104.854,215.964 104.854 C 215.857 104.854,216.363 105.466,217.087 106.214 M233.592 122.718 C 234.427 123.573,235.196 124.272,235.303 124.272 C 235.410 124.272,234.815 123.573,233.981 122.718 C 233.146 121.864,232.376 121.165,232.270 121.165 C 232.163 121.165,232.758 121.864,233.592 122.718 M150.677 169.223 L 138.447 181.553 150.777 169.323 C 162.236 157.956,163.282 156.893,163.007 156.893 C 162.953 156.893,157.404 162.442,150.677 169.223 M192.807 169.417 L 189.320 173.010 192.913 169.523 C 196.249 166.284,196.682 165.825,196.400 165.825 C 196.342 165.825,194.725 167.442,192.807 169.417 M184.260 177.961 L 181.942 180.388 184.369 178.070 C 186.624 175.917,186.974 175.534,186.687 175.534 C 186.627 175.534,185.535 176.626,184.260 177.961 M177.275 184.951 L 173.010 189.320 177.379 185.055 C 179.782 182.709,181.748 180.743,181.748 180.686 C 181.748 180.406,181.237 180.893,177.275 184.951 M242.330 183.811 C 242.330 183.878,242.898 184.446,243.592 185.073 L 244.854 186.214 243.714 184.951 C 242.651 183.775,242.330 183.511,242.330 183.811 M166.013 196.214 L 161.748 200.583 166.117 196.317 C 168.519 193.971,170.485 192.005,170.485 191.948 C 170.485 191.668,169.975 192.156,166.013 196.214 M252.039 194.685 C 252.039 194.751,252.607 195.319,253.301 195.947 L 254.563 197.087 253.422 195.825 C 252.359 194.649,252.039 194.385,252.039 194.685 M155.917 206.311 L 150.485 211.845 156.019 206.413 C 159.063 203.426,161.553 200.935,161.553 200.879 C 161.553 200.601,160.963 201.170,155.917 206.311 M262.136 205.947 C 262.136 206.014,262.704 206.582,263.398 207.209 L 264.660 208.350 263.520 207.087 C 262.456 205.911,262.136 205.647,262.136 205.947 M129.320 211.068 C 130.045 211.816,130.725 212.427,130.832 212.427 C 130.939 212.427,130.433 211.816,129.709 211.068 C 128.984 210.320,128.304 209.709,128.197 209.709 C 128.090 209.709,128.596 210.320,129.320 211.068 " stroke="none" fill="#9fcbed" fill-rule="evenodd"></path><path id="path4" d="M239.416 66.505 L 221.942 84.078 239.515 66.604 C 255.848 50.362,257.262 48.932,256.989 48.932 C 256.934 48.932,249.027 56.840,239.416 66.505 M219.029 120.971 C 256.941 158.883,288.048 189.903,288.155 189.903 C 288.261 189.903,257.330 158.883,219.417 120.971 C 181.505 83.058,150.399 52.039,150.292 52.039 C 150.185 52.039,181.117 83.058,219.029 120.971 M275.156 66.022 C 277.073 68.053,278.720 69.663,278.817 69.600 C 278.915 69.537,277.346 67.875,275.332 65.907 L 271.671 62.330 275.156 66.022 M134.999 64.287 C 134.866 64.634,134.777 65.384,134.802 65.954 C 134.835 66.730,134.923 66.600,135.149 65.437 C 135.471 63.786,135.400 63.243,134.999 64.287 M134.507 72.039 C 134.506 73.961,134.571 74.797,134.653 73.895 C 134.734 72.994,134.735 71.421,134.655 70.400 C 134.575 69.379,134.508 70.117,134.507 72.039 M288.932 79.806 C 290.953 81.835,292.693 83.495,292.800 83.495 C 292.907 83.495,291.341 81.835,289.320 79.806 C 287.300 77.777,285.559 76.117,285.452 76.117 C 285.345 76.117,286.911 77.777,288.932 79.806 M134.757 78.424 C 134.757 79.052,134.896 79.651,135.064 79.756 C 135.233 79.860,135.302 79.346,135.216 78.614 C 135.026 76.981,134.757 76.870,134.757 78.424 M269.296 78.932 L 268.155 80.194 269.417 79.054 C 270.112 78.426,270.680 77.858,270.680 77.791 C 270.680 77.491,270.359 77.756,269.296 78.932 M239.202 80.996 C 238.767 81.520,239.177 82.071,242.161 84.977 L 245.625 88.350 242.358 84.974 C 239.556 82.079,239.162 81.512,239.593 80.993 C 239.869 80.661,240.008 80.388,239.901 80.388 C 239.794 80.388,239.480 80.662,239.202 80.996 M264.247 83.981 L 263.107 85.243 264.369 84.102 C 265.063 83.475,265.631 82.907,265.631 82.840 C 265.631 82.540,265.311 82.804,264.247 83.981 M276.503 99.709 L 261.553 114.757 276.602 99.808 C 290.588 85.913,291.825 84.660,291.552 84.660 C 291.497 84.660,284.725 91.432,276.503 99.709 M258.034 90.194 L 256.893 91.456 258.155 90.316 C 258.850 89.688,259.417 89.120,259.417 89.054 C 259.417 88.754,259.097 89.018,258.034 90.194 M145.615 99.515 C 147.224 101.229,147.573 101.538,147.573 101.246 C 147.573 101.184,146.743 100.353,145.728 99.401 L 143.883 97.670 145.615 99.515 M225.243 114.369 C 228.976 118.107,232.118 121.165,232.225 121.165 C 232.331 121.165,229.364 118.107,225.631 114.369 C 221.898 110.631,218.756 107.573,218.649 107.573 C 218.542 107.573,221.509 110.631,225.243 114.369 M257.257 118.932 L 256.117 120.194 257.379 119.054 C 258.073 118.426,258.641 117.858,258.641 117.791 C 258.641 117.491,258.320 117.756,257.257 118.932 M240.874 125.705 C 241.248 125.802,241.859 125.802,242.233 125.705 C 242.607 125.607,242.301 125.527,241.553 125.527 C 240.806 125.527,240.500 125.607,240.874 125.705 M169.510 150.388 L 162.913 157.087 169.695 150.485 C 173.425 146.854,176.556 143.840,176.653 143.786 C 176.749 143.733,176.666 143.689,176.468 143.689 C 176.270 143.689,173.139 146.704,169.510 150.388 M187.157 154.246 C 196.509 163.690,197.372 164.672,196.886 165.314 C 196.375 165.990,196.384 165.991,197.101 165.333 C 197.829 164.666,197.569 164.370,187.372 154.265 L 176.895 143.883 187.157 154.246 M207.728 154.374 C 205.677 156.400,204.108 158.058,204.241 158.058 C 204.373 158.058,206.135 156.398,208.155 154.369 C 210.176 152.340,211.745 150.682,211.643 150.685 C 211.540 150.687,209.779 152.348,207.728 154.374 M233.786 174.490 C 233.786 174.557,234.354 175.125,235.049 175.753 L 236.311 176.893 235.170 175.631 C 234.107 174.455,233.786 174.190,233.786 174.490 M237.282 178.374 C 237.282 178.441,237.850 179.009,238.544 179.636 L 239.806 180.777 238.665 179.515 C 237.602 178.338,237.282 178.074,237.282 178.374 M133.392 186.505 L 128.350 191.650 133.495 186.608 C 136.325 183.834,138.641 181.518,138.641 181.462 C 138.641 181.183,138.077 181.725,133.392 186.505 M240.000 181.481 C 240.000 181.548,240.568 182.116,241.262 182.743 L 242.524 183.883 241.384 182.621 C 240.320 181.445,240.000 181.181,240.000 181.481 M243.495 185.364 C 243.495 185.431,244.063 185.999,244.757 186.626 L 246.019 187.767 244.879 186.505 C 243.816 185.328,243.495 185.064,243.495 185.364 M249.709 192.355 C 249.709 192.421,250.277 192.989,250.971 193.617 L 252.233 194.757 251.092 193.495 C 250.029 192.319,249.709 192.055,249.709 192.355 M253.981 197.087 C 254.705 197.835,255.385 198.447,255.492 198.447 C 255.599 198.447,255.094 197.835,254.369 197.087 C 253.644 196.340,252.964 195.728,252.857 195.728 C 252.751 195.728,253.256 196.340,253.981 197.087 M292.936 200.971 C 292.938 202.252,293.011 202.730,293.097 202.032 C 293.183 201.334,293.182 200.285,293.093 199.702 C 293.004 199.118,292.934 199.689,292.936 200.971 M256.311 199.733 C 256.311 199.800,256.879 200.368,257.573 200.995 L 258.835 202.136 257.694 200.874 C 256.631 199.697,256.311 199.433,256.311 199.733 M260.583 204.466 C 261.307 205.214,261.987 205.825,262.094 205.825 C 262.201 205.825,261.695 205.214,260.971 204.466 C 260.246 203.718,259.566 203.107,259.459 203.107 C 259.352 203.107,259.858 203.718,260.583 204.466 M263.883 208.155 C 264.718 209.010,265.488 209.709,265.595 209.709 C 265.701 209.709,265.106 209.010,264.272 208.155 C 263.438 207.301,262.668 206.602,262.561 206.602 C 262.454 206.602,263.049 207.301,263.883 208.155 M288.720 211.359 L 287.184 213.010 288.835 211.475 C 289.743 210.630,290.485 209.888,290.485 209.824 C 290.485 209.530,290.147 209.824,288.720 211.359 M278.058 215.922 L 275.146 216.171 277.864 216.235 C 279.359 216.270,280.845 216.129,281.165 215.922 C 281.485 215.715,281.573 215.575,281.359 215.610 C 281.146 215.645,279.660 215.786,278.058 215.922 M139.515 216.190 C 139.888 216.288,140.500 216.288,140.874 216.190 C 141.248 216.092,140.942 216.012,140.194 216.012 C 139.447 216.012,139.141 216.092,139.515 216.190 " stroke="none" fill="#84c4ec" fill-rule="evenodd"></path></g></svg>